<svg width="18" height="14" viewBox="0 0 18 14" fill="none" xmlns="http://www.w3.org/2000/svg">
    <path d="M18 12.444V1.54C18 .684 17.355 0 16.567 0H1.433C.645 0 0 .684 0 1.54v10.904C0 13.3.645 14 1.433 14h15.134c.788 0 1.433-.7 1.433-1.556zm-2.15.016H2.15c-.395 0-.717-.35-.717-.778V2.31c0-.428.322-.778.717-.778h13.7c.394 0 .717.35.717.778v9.372c0 .428-.323.778-.716.778z" fill="#C7C9CB"/>
    <path d="M3.212 3.748c0-.3.246-.542.55-.542H14.15c.303 0 .55.242.55.542v6.588c0 .3-.247.543-.55.543H3.762a.546.546 0 0 1-.55-.543V3.748z" fill="#C7C9CB"/>
</svg>
