<svg width="49" height="48" viewBox="0 0 49 48" fill="none" xmlns="http://www.w3.org/2000/svg">
<g opacity="0.8">
<path d="M12.9089 22.8942C12.2363 25.4042 12.3967 28.0648 13.366 30.4759C14.3352 32.8869 16.0609 34.9182 18.2837 36.2644C20.5064 37.6105 23.1061 38.1988 25.6918 37.9407C28.2776 37.6826 30.7097 36.5921 32.6225 34.8332C34.5353 33.0742 35.8255 30.7419 36.2991 28.1868C36.7726 25.6318 36.404 22.992 35.2485 20.6644C34.0931 18.3368 32.2133 16.4472 29.8918 15.2796C27.5703 14.112 24.9325 13.7295 22.375 14.1897" stroke="white" stroke-width="2.4" stroke-linecap="round" stroke-linejoin="round"/>
<path d="M24.5 17L20.5 14L24.5 11" stroke="white" stroke-width="2.4" stroke-linecap="round" stroke-linejoin="round"/>
<path d="M21.8242 21.916V30.4004H20.0547V23.5918H20.0078L18.0625 24.8105V23.252L20.1602 21.916H21.8242ZM27.0859 30.5176C24.959 30.5176 23.6758 28.9355 23.6758 26.1582C23.6758 23.3867 24.9707 21.7988 27.0859 21.7988C29.2012 21.7988 30.4961 23.3867 30.4961 26.1582C30.4961 28.9473 29.207 30.5176 27.0859 30.5176ZM25.4805 26.1582C25.4688 28.1152 26.1016 29.0645 27.0859 29.0645C28.0703 29.0645 28.6973 28.1152 28.6914 26.1582C28.6973 24.2188 28.0645 23.2461 27.0859 23.2402C26.1074 23.2461 25.4805 24.2188 25.4805 26.1582Z" fill="white"/>
</g>
</svg>
