<svg width="49" height="48" viewBox="0 0 49 48" fill="none" xmlns="http://www.w3.org/2000/svg">
<g opacity="0.8">
<path d="M36.0911 22.8939C36.7637 25.404 36.6033 28.0645 35.634 30.4756C34.6648 32.8867 32.9391 34.918 30.7163 36.2641C28.4936 37.6103 25.8939 38.1985 23.3082 37.9404C20.7224 37.6823 18.2903 36.5919 16.3775 34.8329C14.4647 33.074 13.1745 30.7417 12.7009 28.1866C12.2274 25.6315 12.596 22.9917 13.7515 20.6641C14.9069 18.3365 16.7867 16.4469 19.1082 15.2793C21.4297 14.1117 24.0675 13.7293 26.625 14.1894" stroke="white" stroke-width="2.4" stroke-linecap="round" stroke-linejoin="round"/>
<path d="M24.5 16.9998L28.5 13.9998L24.5 10.9998" stroke="white" stroke-width="2.4" stroke-linecap="round" stroke-linejoin="round"/>
<path d="M21.824 21.9163V30.4006H20.0544V23.592H20.0076L18.0623 24.8108V23.2522L20.1599 21.9163H21.824ZM27.0857 30.5178C24.9587 30.5178 23.6755 28.9358 23.6755 26.1584C23.6755 23.387 24.9705 21.7991 27.0857 21.7991C29.2009 21.7991 30.4958 23.387 30.4958 26.1584C30.4958 28.9475 29.2068 30.5178 27.0857 30.5178ZM25.4802 26.1584C25.4685 28.1155 26.1013 29.0647 27.0857 29.0647C28.0701 29.0647 28.697 28.1155 28.6912 26.1584C28.697 24.219 28.0642 23.2463 27.0857 23.2405C26.1072 23.2463 25.4802 24.219 25.4802 26.1584Z" fill="white"/>
</g>
</svg>
